<svg width="512" height="184" viewBox="0 0 512 184" fill="none" xmlns="http://www.w3.org/2000/svg">
<g clip-path="url(#clip0_284_455)">
<path d="M171.509 79.38C165.479 79.38 160.235 78.2907 155.777 76.112C151.318 73.8827 147.898 70.7413 145.517 66.688C143.135 62.6347 141.945 57.9227 141.945 52.552C141.945 45.104 143.338 38.492 146.125 32.716C148.962 26.94 152.787 22.4813 157.601 19.34C162.414 16.148 167.759 14.552 173.637 14.552C179.109 14.552 183.263 15.9707 186.101 18.808C188.938 21.5947 190.357 25.2933 190.357 29.904C190.357 32.9947 189.799 35.4773 188.685 37.352C187.621 39.2267 186.075 40.164 184.049 40.164C182.63 40.164 181.515 39.8347 180.705 39.176C179.894 38.5173 179.489 37.5547 179.489 36.288C179.489 35.832 179.59 34.996 179.793 33.78C180.097 32.26 180.249 31.044 180.249 30.132C180.249 25.5213 177.791 23.216 172.877 23.216C169.533 23.216 166.341 24.3053 163.301 26.484C160.261 28.6627 157.803 31.88 155.929 36.136C154.054 40.3413 153.117 45.3573 153.117 51.184C153.117 57.264 154.814 61.976 158.209 65.32C161.603 68.6133 166.619 70.26 173.257 70.26C176.55 70.26 179.869 69.8547 183.213 69.044C186.607 68.1827 190.357 66.8907 194.461 65.168C195.221 64.864 195.854 64.712 196.361 64.712C197.171 64.712 197.779 65.016 198.185 65.624C198.59 66.232 198.793 67.0173 198.793 67.98C198.793 71.0707 197.121 73.3507 193.777 74.82C190.179 76.3907 186.43 77.556 182.529 78.316C178.678 79.0253 175.005 79.38 171.509 79.38ZM201.418 79.38C198.277 79.38 195.769 78.24 193.894 75.96C192.02 73.68 191.082 70.6907 191.082 66.992C191.082 62.9387 192.02 59.1133 193.894 55.516C195.769 51.868 198.252 48.9547 201.342 46.776C204.484 44.5467 207.802 43.432 211.298 43.432C212.413 43.432 213.148 43.66 213.502 44.116C213.908 44.5213 214.237 45.2813 214.49 46.396C215.554 46.1933 216.669 46.092 217.834 46.092C220.317 46.092 221.558 46.9787 221.558 48.752C221.558 49.816 221.178 52.3493 220.418 56.352C219.253 62.1787 218.67 66.232 218.67 68.512C218.67 69.272 218.848 69.88 219.202 70.336C219.608 70.792 220.114 71.02 220.722 71.02C221.685 71.02 222.85 70.412 224.218 69.196C225.586 67.9293 227.436 65.9027 229.766 63.116C230.374 62.4067 231.058 62.052 231.818 62.052C232.477 62.052 232.984 62.356 233.338 62.964C233.744 63.572 233.946 64.408 233.946 65.472C233.946 67.4987 233.465 69.0693 232.502 70.184C230.425 72.768 228.221 74.9467 225.89 76.72C223.56 78.4933 221.305 79.38 219.126 79.38C217.454 79.38 215.909 78.8227 214.49 77.708C213.122 76.5427 212.084 74.972 211.374 72.996C208.74 77.252 205.421 79.38 201.418 79.38ZM204.154 71.704C205.269 71.704 206.333 71.0453 207.346 69.728C208.36 68.4107 209.094 66.6627 209.55 64.484L212.362 50.5C210.234 50.5507 208.258 51.3613 206.434 52.932C204.661 54.452 203.242 56.4787 202.178 59.012C201.114 61.5453 200.582 64.2307 200.582 67.068C200.582 68.6387 200.886 69.804 201.494 70.564C202.153 71.324 203.04 71.704 204.154 71.704ZM232.406 79.38C230.48 79.38 229.112 78.3667 228.302 76.34C227.542 74.3133 227.162 71.0707 227.162 66.612C227.162 60.0253 228.099 53.768 229.974 47.84C230.43 46.3707 231.164 45.3067 232.178 44.648C233.242 43.9387 234.711 43.584 236.586 43.584C237.599 43.584 238.308 43.7107 238.714 43.964C239.119 44.2173 239.322 44.6987 239.322 45.408C239.322 46.2187 238.942 48.0427 238.182 50.88C237.675 52.9067 237.27 54.68 236.966 56.2C236.662 57.6693 236.408 59.5187 236.206 61.748C237.574 57.796 239.195 54.452 241.07 51.716C242.995 48.98 244.946 46.9533 246.922 45.636C248.948 44.268 250.848 43.584 252.622 43.584C254.395 43.584 255.636 43.9893 256.346 44.8C257.106 45.6107 257.486 46.852 257.486 48.524C257.486 50.1453 257.004 53.084 256.042 57.34C255.636 59.164 255.358 60.532 255.206 61.444C257.739 55.212 260.551 50.6773 263.642 47.84C266.732 45.0027 269.62 43.584 272.306 43.584C275.599 43.584 277.246 45.2307 277.246 48.524C277.246 50.5 276.688 54.072 275.574 59.24C274.611 63.648 274.13 66.5613 274.13 67.98C274.13 70.0067 274.864 71.02 276.334 71.02C277.347 71.02 278.538 70.412 279.906 69.196C281.324 67.9293 283.199 65.9027 285.53 63.116C286.138 62.4067 286.822 62.052 287.582 62.052C288.24 62.052 288.747 62.356 289.102 62.964C289.507 63.572 289.71 64.408 289.71 65.472C289.71 67.4987 289.228 69.0693 288.266 70.184C286.087 72.8693 283.731 75.0733 281.198 76.796C278.715 78.5187 275.878 79.38 272.686 79.38C270.102 79.38 268.151 78.6453 266.834 77.176C265.516 75.656 264.858 73.4773 264.858 70.64C264.858 69.2213 265.212 66.688 265.922 63.04C266.58 59.848 266.91 57.644 266.91 56.428C266.91 55.6173 266.631 55.212 266.074 55.212C265.415 55.212 264.478 56.0733 263.262 57.796C262.046 59.468 260.83 61.6973 259.614 64.484C258.398 67.2707 257.41 70.2093 256.65 73.3C256.092 75.732 255.434 77.3533 254.674 78.164C253.964 78.9747 252.799 79.38 251.178 79.38C249.506 79.38 248.239 78.5947 247.378 77.024C246.567 75.4027 246.162 73.452 246.162 71.172C246.162 69.2467 246.415 66.46 246.922 62.812C247.327 59.5693 247.53 57.4413 247.53 56.428C247.53 55.6173 247.251 55.212 246.694 55.212C245.934 55.212 244.971 56.124 243.806 57.948C242.64 59.772 241.5 62.1027 240.386 64.94C239.322 67.7773 238.46 70.564 237.802 73.3C237.244 75.6813 236.586 77.3027 235.826 78.164C235.116 78.9747 233.976 79.38 232.406 79.38ZM292.76 38.568C290.632 38.568 289.036 38.0867 287.972 37.124C286.908 36.1107 286.376 34.7173 286.376 32.944C286.376 31.1707 287.06 29.7013 288.428 28.536C289.847 27.32 291.595 26.712 293.672 26.712C295.547 26.712 297.067 27.168 298.232 28.08C299.398 28.992 299.98 30.284 299.98 31.956C299.98 33.9827 299.322 35.604 298.004 36.82C296.687 37.9853 294.939 38.568 292.76 38.568ZM292.152 79.38C288.859 79.38 286.452 78.2147 284.932 75.884C283.463 73.5533 282.728 70.4627 282.728 66.612C282.728 64.332 283.007 61.4187 283.564 57.872C284.172 54.2747 284.932 50.9307 285.844 47.84C286.3 46.2187 286.908 45.104 287.668 44.496C288.428 43.888 289.644 43.584 291.316 43.584C293.9 43.584 295.192 44.4453 295.192 46.168C295.192 47.4347 294.711 50.3733 293.748 54.984C292.532 60.5573 291.924 64.332 291.924 66.308C291.924 67.828 292.127 68.9933 292.532 69.804C292.938 70.6147 293.622 71.02 294.584 71.02C295.496 71.02 296.636 70.3867 298.004 69.12C299.372 67.8533 301.196 65.852 303.476 63.116C304.084 62.4067 304.768 62.052 305.528 62.052C306.187 62.052 306.694 62.356 307.048 62.964C307.454 63.572 307.656 64.408 307.656 65.472C307.656 67.4987 307.175 69.0693 306.212 70.184C301.196 76.3147 296.51 79.38 292.152 79.38ZM329.551 62.052C330.21 62.052 330.717 62.356 331.071 62.964C331.477 63.572 331.679 64.408 331.679 65.472C331.679 67.4987 331.198 69.0693 330.235 70.184C328.057 72.8693 325.675 75.0733 323.091 76.796C320.558 78.5187 317.67 79.38 314.427 79.38C309.969 79.38 306.65 77.3533 304.471 73.3C302.343 69.2467 301.279 64.0027 301.279 57.568C301.279 51.3867 302.065 44.344 303.635 36.44C305.257 28.536 307.613 21.7467 310.703 16.072C313.845 10.3973 317.569 7.56 321.875 7.56C324.307 7.56 326.207 8.7 327.575 10.98C328.994 13.2093 329.703 16.4267 329.703 20.632C329.703 26.6613 328.031 33.6533 324.687 41.608C321.343 49.5627 316.809 57.4413 311.083 65.244C311.438 67.3213 312.021 68.816 312.831 69.728C313.642 70.5893 314.706 71.02 316.023 71.02C318.101 71.02 319.925 70.4373 321.495 69.272C323.066 68.056 325.067 66.004 327.499 63.116C328.107 62.4067 328.791 62.052 329.551 62.052ZM320.203 15.084C319.038 15.084 317.721 17.1867 316.251 21.392C314.782 25.5973 313.49 30.816 312.375 37.048C311.261 43.28 310.653 49.2587 310.551 54.984C314.149 49.056 317.011 43.128 319.139 37.2C321.267 31.2213 322.331 25.7747 322.331 20.86C322.331 17.0093 321.622 15.084 320.203 15.084ZM337.62 79.38C334.631 79.38 332.072 78.6453 329.944 77.176C327.867 75.656 326.296 73.68 325.232 71.248C324.168 68.816 323.636 66.2067 323.636 63.42C323.636 59.5693 324.346 56.1493 325.764 53.16C327.234 50.12 329.21 47.764 331.692 46.092C334.175 44.3693 336.962 43.508 340.052 43.508C343.042 43.508 345.6 44.268 347.728 45.788C349.856 47.2573 351.452 49.208 352.516 51.64C353.58 54.072 354.112 56.6813 354.112 59.468C354.112 63.3187 353.378 66.764 351.908 69.804C350.439 72.7933 348.438 75.1493 345.904 76.872C343.422 78.544 340.66 79.38 337.62 79.38ZM338.456 71.172C340.179 71.172 341.623 70.2347 342.788 68.36C344.004 66.4853 344.612 63.7493 344.612 60.152C344.612 57.3653 344.106 55.2627 343.092 53.844C342.079 52.4253 340.863 51.716 339.444 51.716C337.62 51.716 336.1 52.6533 334.884 54.528C333.719 56.352 333.136 59.088 333.136 62.736C333.136 65.624 333.643 67.752 334.656 69.12C335.67 70.488 336.936 71.172 338.456 71.172ZM47.8203 169.38C41.7909 169.38 36.5469 168.291 32.0883 166.112C27.6296 163.883 24.2096 160.741 21.8283 156.688C19.4469 152.635 18.2563 147.923 18.2563 142.552C18.2563 135.104 19.6496 128.492 22.4363 122.716C25.2736 116.94 29.0989 112.481 33.9123 109.34C38.7256 106.148 44.0709 104.552 49.9483 104.552C55.4203 104.552 59.5749 105.971 62.4123 108.808C65.2496 111.595 66.6683 115.293 66.6683 119.904C66.6683 122.995 66.1109 125.477 64.9963 127.352C63.9323 129.227 62.3869 130.164 60.3603 130.164C58.9416 130.164 57.8269 129.835 57.0163 129.176C56.2056 128.517 55.8003 127.555 55.8003 126.288C55.8003 125.832 55.9016 124.996 56.1043 123.78C56.4083 122.26 56.5603 121.044 56.5603 120.132C56.5603 115.521 54.1029 113.216 49.1883 113.216C45.8443 113.216 42.6523 114.305 39.6123 116.484C36.5723 118.663 34.1149 121.88 32.2403 126.136C30.3656 130.341 29.4283 135.357 29.4283 141.184C29.4283 147.264 31.1256 151.976 34.5203 155.32C37.9149 158.613 42.9309 160.26 49.5683 160.26C52.8616 160.26 56.1803 159.855 59.5243 159.044C62.9189 158.183 66.6683 156.891 70.7723 155.168C71.5323 154.864 72.1656 154.712 72.6723 154.712C73.4829 154.712 74.0909 155.016 74.4963 155.624C74.9016 156.232 75.1043 157.017 75.1043 157.98C75.1043 161.071 73.4323 163.351 70.0883 164.82C66.4909 166.391 62.7416 167.556 58.8403 168.316C54.9896 169.025 51.3163 169.38 47.8203 169.38ZM77.7298 169.38C74.5885 169.38 72.0805 168.24 70.2058 165.96C68.3312 163.68 67.3938 160.691 67.3938 156.992C67.3938 152.939 68.3312 149.113 70.2058 145.516C72.0805 141.868 74.5632 138.955 77.6538 136.776C80.7952 134.547 84.1138 133.432 87.6098 133.432C88.7245 133.432 89.4592 133.66 89.8138 134.116C90.2192 134.521 90.5485 135.281 90.8018 136.396C91.8658 136.193 92.9805 136.092 94.1458 136.092C96.6285 136.092 97.8698 136.979 97.8698 138.752C97.8698 139.816 97.4898 142.349 96.7298 146.352C95.5645 152.179 94.9818 156.232 94.9818 158.512C94.9818 159.272 95.1592 159.88 95.5138 160.336C95.9192 160.792 96.4258 161.02 97.0338 161.02C97.9965 161.02 99.1618 160.412 100.53 159.196C101.898 157.929 103.747 155.903 106.078 153.116C106.686 152.407 107.37 152.052 108.13 152.052C108.789 152.052 109.295 152.356 109.65 152.964C110.055 153.572 110.258 154.408 110.258 155.472C110.258 157.499 109.777 159.069 108.814 160.184C106.737 162.768 104.533 164.947 102.202 166.72C99.8712 168.493 97.6165 169.38 95.4378 169.38C93.7658 169.38 92.2205 168.823 90.8018 167.708C89.4338 166.543 88.3952 164.972 87.6858 162.996C85.0512 167.252 81.7325 169.38 77.7298 169.38ZM80.4658 161.704C81.5805 161.704 82.6445 161.045 83.6578 159.728C84.6712 158.411 85.4058 156.663 85.8618 154.484L88.6738 140.5C86.5458 140.551 84.5698 141.361 82.7458 142.932C80.9725 144.452 79.5538 146.479 78.4898 149.012C77.4258 151.545 76.8938 154.231 76.8938 157.068C76.8938 158.639 77.1978 159.804 77.8058 160.564C78.4645 161.324 79.3512 161.704 80.4658 161.704ZM108.717 169.38C106.792 169.38 105.424 168.367 104.613 166.34C103.853 164.313 103.473 161.071 103.473 156.612C103.473 150.025 104.41 143.768 106.285 137.84C106.741 136.371 107.476 135.307 108.489 134.648C109.553 133.939 111.022 133.584 112.897 133.584C113.91 133.584 114.62 133.711 115.025 133.964C115.43 134.217 115.633 134.699 115.633 135.408C115.633 136.219 115.253 138.043 114.493 140.88C113.986 142.907 113.581 144.68 113.277 146.2C112.973 147.72 112.72 149.595 112.517 151.824C114.189 147.467 116.064 143.92 118.141 141.184C120.218 138.448 122.245 136.497 124.221 135.332C126.248 134.167 128.097 133.584 129.769 133.584C133.062 133.584 134.709 135.231 134.709 138.524C134.709 139.183 134.481 140.779 134.025 143.312C133.62 145.339 133.417 146.605 133.417 147.112C133.417 148.885 134.05 149.772 135.317 149.772C136.736 149.772 138.56 148.657 140.789 146.428C141.448 145.769 142.132 145.44 142.841 145.44C143.5 145.44 144.006 145.744 144.361 146.352C144.766 146.909 144.969 147.669 144.969 148.632C144.969 150.507 144.462 151.976 143.449 153.04C142.03 154.509 140.358 155.776 138.433 156.84C136.558 157.853 134.557 158.36 132.429 158.36C129.744 158.36 127.692 157.676 126.273 156.308C124.905 154.94 124.221 153.091 124.221 150.76C124.221 150 124.297 149.24 124.449 148.48C124.55 147.467 124.601 146.783 124.601 146.428C124.601 145.617 124.322 145.212 123.765 145.212C123.005 145.212 121.992 146.073 120.725 147.796C119.509 149.468 118.293 151.697 117.077 154.484C115.861 157.271 114.873 160.209 114.113 163.3C113.556 165.681 112.897 167.303 112.137 168.164C111.428 168.975 110.288 169.38 108.717 169.38ZM142.543 169.38C140.618 169.38 139.25 168.367 138.439 166.34C137.679 164.313 137.299 161.071 137.299 156.612C137.299 150.025 138.236 143.768 140.111 137.84C140.567 136.371 141.302 135.307 142.315 134.648C143.379 133.939 144.848 133.584 146.723 133.584C147.736 133.584 148.446 133.711 148.851 133.964C149.256 134.217 149.459 134.699 149.459 135.408C149.459 136.219 149.079 138.043 148.319 140.88C147.812 142.907 147.407 144.68 147.103 146.2C146.799 147.72 146.546 149.595 146.343 151.824C148.015 147.467 149.89 143.92 151.967 141.184C154.044 138.448 156.071 136.497 158.047 135.332C160.074 134.167 161.923 133.584 163.595 133.584C166.888 133.584 168.535 135.231 168.535 138.524C168.535 139.183 168.307 140.779 167.851 143.312C167.446 145.339 167.243 146.605 167.243 147.112C167.243 148.885 167.876 149.772 169.143 149.772C170.562 149.772 172.386 148.657 174.615 146.428C175.274 145.769 175.958 145.44 176.667 145.44C177.326 145.44 177.832 145.744 178.187 146.352C178.592 146.909 178.795 147.669 178.795 148.632C178.795 150.507 178.288 151.976 177.275 153.04C175.856 154.509 174.184 155.776 172.259 156.84C170.384 157.853 168.383 158.36 166.255 158.36C163.57 158.36 161.518 157.676 160.099 156.308C158.731 154.94 158.047 153.091 158.047 150.76C158.047 150 158.123 149.24 158.275 148.48C158.376 147.467 158.427 146.783 158.427 146.428C158.427 145.617 158.148 145.212 157.591 145.212C156.831 145.212 155.818 146.073 154.551 147.796C153.335 149.468 152.119 151.697 150.903 154.484C149.687 157.271 148.699 160.209 147.939 163.3C147.382 165.681 146.723 167.303 145.963 168.164C145.254 168.975 144.114 169.38 142.543 169.38ZM204.869 152.052C205.528 152.052 206.034 152.356 206.389 152.964C206.794 153.572 206.997 154.408 206.997 155.472C206.997 157.499 206.516 159.069 205.553 160.184C203.678 162.464 201.018 164.567 197.573 166.492C194.178 168.417 190.53 169.38 186.629 169.38C181.309 169.38 177.18 167.936 174.241 165.048C171.302 162.16 169.833 158.208 169.833 153.192C169.833 149.696 170.568 146.453 172.037 143.464C173.506 140.424 175.533 138.017 178.117 136.244C180.752 134.471 183.716 133.584 187.009 133.584C189.948 133.584 192.304 134.471 194.077 136.244C195.85 137.967 196.737 140.323 196.737 143.312C196.737 146.808 195.47 149.823 192.937 152.356C190.454 154.839 186.224 156.815 180.245 158.284C181.512 160.615 183.918 161.78 187.465 161.78C189.745 161.78 192.329 160.995 195.217 159.424C198.156 157.803 200.689 155.7 202.817 153.116C203.425 152.407 204.109 152.052 204.869 152.052ZM185.717 141.032C183.842 141.032 182.246 142.121 180.929 144.3C179.662 146.479 179.029 149.113 179.029 152.204V152.356C182.018 151.647 184.374 150.583 186.097 149.164C187.82 147.745 188.681 146.099 188.681 144.224C188.681 143.261 188.402 142.501 187.845 141.944C187.338 141.336 186.629 141.032 185.717 141.032ZM205.445 169.38C203.52 169.38 202.152 168.367 201.341 166.34C200.581 164.313 200.201 161.071 200.201 156.612C200.201 150.025 201.138 143.768 203.013 137.84C203.469 136.371 204.204 135.307 205.217 134.648C206.281 133.939 207.75 133.584 209.625 133.584C210.638 133.584 211.348 133.711 211.753 133.964C212.158 134.217 212.361 134.699 212.361 135.408C212.361 136.219 211.981 138.043 211.221 140.88C210.714 142.907 210.309 144.68 210.005 146.2C209.701 147.72 209.448 149.595 209.245 151.824C210.917 147.467 212.792 143.92 214.869 141.184C216.946 138.448 218.973 136.497 220.949 135.332C222.976 134.167 224.825 133.584 226.497 133.584C229.79 133.584 231.437 135.231 231.437 138.524C231.437 140.5 230.88 144.072 229.765 149.24C228.802 153.648 228.321 156.561 228.321 157.98C228.321 160.007 229.056 161.02 230.525 161.02C231.538 161.02 232.729 160.412 234.097 159.196C235.516 157.929 237.39 155.903 239.721 153.116C240.329 152.407 241.013 152.052 241.773 152.052C242.432 152.052 242.938 152.356 243.293 152.964C243.698 153.572 243.901 154.408 243.901 155.472C243.901 157.499 243.42 159.069 242.457 160.184C240.278 162.869 237.922 165.073 235.389 166.796C232.906 168.519 230.069 169.38 226.877 169.38C224.293 169.38 222.342 168.645 221.025 167.176C219.708 165.656 219.049 163.477 219.049 160.64C219.049 159.221 219.404 156.688 220.113 153.04C220.772 149.848 221.101 147.644 221.101 146.428C221.101 145.617 220.822 145.212 220.265 145.212C219.606 145.212 218.669 146.073 217.453 147.796C216.288 149.468 215.072 151.697 213.805 154.484C212.589 157.271 211.601 160.209 210.841 163.3C210.284 165.681 209.625 167.303 208.865 168.164C208.156 168.975 207.016 169.38 205.445 169.38ZM228.017 128.568C227.206 128.568 226.446 128.441 225.737 128.188C225.028 127.884 224.116 127.352 223.001 126.592L214.869 120.968L211.525 125.756C210.714 126.871 209.574 127.428 208.105 127.428C207.193 127.428 206.408 127.175 205.749 126.668C205.141 126.111 204.837 125.376 204.837 124.464C204.837 123.299 205.774 121.348 207.649 118.612C208.814 116.94 209.954 115.724 211.069 114.964C212.184 114.153 213.4 113.748 214.717 113.748C215.578 113.748 216.338 113.875 216.997 114.128C217.706 114.381 218.618 114.913 219.733 115.724L227.865 121.348L231.209 116.56C232.02 115.445 233.16 114.888 234.629 114.888C235.541 114.888 236.301 115.167 236.909 115.724C237.568 116.231 237.897 116.94 237.897 117.852C237.897 118.561 237.644 119.372 237.137 120.284C236.681 121.145 235.997 122.285 235.085 123.704C233.92 125.376 232.78 126.617 231.665 127.428C230.55 128.188 229.334 128.568 228.017 128.568ZM249.836 169.38C246.847 169.38 244.288 168.645 242.16 167.176C240.083 165.656 238.512 163.68 237.448 161.248C236.384 158.816 235.852 156.207 235.852 153.42C235.852 149.569 236.561 146.149 237.98 143.16C239.449 140.12 241.425 137.764 243.908 136.092C246.391 134.369 249.177 133.508 252.268 133.508C255.257 133.508 257.816 134.268 259.944 135.788C262.072 137.257 263.668 139.208 264.732 141.64C265.796 144.072 266.328 146.681 266.328 149.468C266.328 153.319 265.593 156.764 264.124 159.804C262.655 162.793 260.653 165.149 258.12 166.872C255.637 168.544 252.876 169.38 249.836 169.38ZM250.672 161.172C252.395 161.172 253.839 160.235 255.004 158.36C256.22 156.485 256.828 153.749 256.828 150.152C256.828 147.365 256.321 145.263 255.308 143.844C254.295 142.425 253.079 141.716 251.66 141.716C249.836 141.716 248.316 142.653 247.1 144.528C245.935 146.352 245.352 149.088 245.352 152.736C245.352 155.624 245.859 157.752 246.872 159.12C247.885 160.488 249.152 161.172 250.672 161.172ZM352.343 120.36C352.343 124.667 350.823 128.391 347.783 131.532C344.743 134.623 340.309 136.852 334.483 138.22C337.624 139.081 340.005 140.5 341.627 142.476C343.248 144.401 344.059 146.631 344.059 149.164C344.059 153.167 342.792 156.637 340.259 159.576C337.776 162.515 334.128 164.795 329.315 166.416C324.501 167.987 318.7 168.772 311.911 168.772C309.377 168.772 307.351 168.696 305.831 168.544C305.78 169.963 305.172 171.027 304.007 171.736C302.841 172.445 301.347 172.8 299.523 172.8C297.699 172.8 296.432 172.395 295.723 171.584C295.064 170.773 294.785 169.583 294.887 168.012C295.343 160.919 296.229 153.496 297.547 145.744C298.864 137.941 300.536 130.417 302.563 123.172C302.917 121.905 303.627 121.019 304.691 120.512C305.755 120.005 307.148 119.752 308.871 119.752C311.961 119.752 313.507 120.613 313.507 122.336C313.507 123.045 313.355 123.856 313.051 124.768C311.733 128.72 310.416 134.091 309.099 140.88C307.781 147.619 306.844 154.053 306.287 160.184C308.719 160.387 310.695 160.488 312.215 160.488C319.308 160.488 324.501 159.475 327.795 157.448C331.139 155.371 332.811 152.736 332.811 149.544C332.811 147.315 331.848 145.44 329.923 143.92C328.048 142.4 324.881 141.564 320.423 141.412C319.409 141.361 318.7 141.108 318.295 140.652C317.889 140.196 317.687 139.461 317.687 138.448C317.687 136.979 317.991 135.788 318.599 134.876C319.207 133.964 320.321 133.483 321.943 133.432C325.54 133.331 328.783 132.799 331.671 131.836C334.609 130.873 336.915 129.531 338.587 127.808C340.259 126.035 341.095 123.983 341.095 121.652C341.095 118.713 339.651 116.408 336.763 114.736C333.875 113.013 329.441 112.152 323.463 112.152C318.041 112.152 312.797 112.861 307.731 114.28C302.664 115.648 298.357 117.396 294.811 119.524C293.189 120.487 291.821 120.968 290.707 120.968C289.795 120.968 289.085 120.664 288.579 120.056C288.123 119.397 287.895 118.587 287.895 117.624C287.895 116.357 288.148 115.268 288.655 114.356C289.212 113.444 290.504 112.405 292.531 111.24C296.787 108.808 301.777 106.908 307.503 105.54C313.228 104.172 319.08 103.488 325.059 103.488C334.229 103.488 341.069 105.033 345.579 108.124C350.088 111.215 352.343 115.293 352.343 120.36ZM383.35 152.052C384.009 152.052 384.516 152.356 384.87 152.964C385.276 153.572 385.478 154.408 385.478 155.472C385.478 157.499 384.997 159.069 384.034 160.184C382.16 162.464 379.5 164.567 376.054 166.492C372.66 168.417 369.012 169.38 365.11 169.38C359.79 169.38 355.661 167.936 352.722 165.048C349.784 162.16 348.314 158.208 348.314 153.192C348.314 149.696 349.049 146.453 350.518 143.464C351.988 140.424 354.014 138.017 356.598 136.244C359.233 134.471 362.197 133.584 365.49 133.584C368.429 133.584 370.785 134.471 372.558 136.244C374.332 137.967 375.218 140.323 375.218 143.312C375.218 146.808 373.952 149.823 371.418 152.356C368.936 154.839 364.705 156.815 358.726 158.284C359.993 160.615 362.4 161.78 365.946 161.78C368.226 161.78 370.81 160.995 373.698 159.424C376.637 157.803 379.17 155.7 381.298 153.116C381.906 152.407 382.59 152.052 383.35 152.052ZM364.198 141.032C362.324 141.032 360.728 142.121 359.41 144.3C358.144 146.479 357.51 149.113 357.51 152.204V152.356C360.5 151.647 362.856 150.583 364.578 149.164C366.301 147.745 367.162 146.099 367.162 144.224C367.162 143.261 366.884 142.501 366.326 141.944C365.82 141.336 365.11 141.032 364.198 141.032ZM407.334 152.052C407.993 152.052 408.499 152.356 408.854 152.964C409.259 153.572 409.462 154.408 409.462 155.472C409.462 157.499 408.981 159.069 408.018 160.184C405.839 162.869 403.458 165.073 400.874 166.796C398.341 168.519 395.453 169.38 392.21 169.38C387.751 169.38 384.433 167.353 382.254 163.3C380.126 159.247 379.062 154.003 379.062 147.568C379.062 141.387 379.847 134.344 381.418 126.44C383.039 118.536 385.395 111.747 388.486 106.072C391.627 100.397 395.351 97.56 399.658 97.56C402.09 97.56 403.99 98.7 405.358 100.98C406.777 103.209 407.486 106.427 407.486 110.632C407.486 116.661 405.814 123.653 402.47 131.608C399.126 139.563 394.591 147.441 388.866 155.244C389.221 157.321 389.803 158.816 390.614 159.728C391.425 160.589 392.489 161.02 393.806 161.02C395.883 161.02 397.707 160.437 399.278 159.272C400.849 158.056 402.85 156.004 405.282 153.116C405.89 152.407 406.574 152.052 407.334 152.052ZM397.986 105.084C396.821 105.084 395.503 107.187 394.034 111.392C392.565 115.597 391.273 120.816 390.158 127.048C389.043 133.28 388.435 139.259 388.334 144.984C391.931 139.056 394.794 133.128 396.922 127.2C399.05 121.221 400.114 115.775 400.114 110.86C400.114 107.009 399.405 105.084 397.986 105.084ZM436.455 152.052C437.114 152.052 437.621 152.356 437.975 152.964C438.381 153.572 438.583 154.408 438.583 155.472C438.583 157.499 438.102 159.069 437.139 160.184C435.265 162.464 432.605 164.567 429.159 166.492C425.765 168.417 422.117 169.38 418.215 169.38C412.895 169.38 408.766 167.936 405.827 165.048C402.889 162.16 401.419 158.208 401.419 153.192C401.419 149.696 402.154 146.453 403.623 143.464C405.093 140.424 407.119 138.017 409.703 136.244C412.338 134.471 415.302 133.584 418.595 133.584C421.534 133.584 423.89 134.471 425.663 136.244C427.437 137.967 428.323 140.323 428.323 143.312C428.323 146.808 427.057 149.823 424.523 152.356C422.041 154.839 417.81 156.815 411.831 158.284C413.098 160.615 415.505 161.78 419.051 161.78C421.331 161.78 423.915 160.995 426.803 159.424C429.742 157.803 432.275 155.7 434.403 153.116C435.011 152.407 435.695 152.052 436.455 152.052ZM417.303 141.032C415.429 141.032 413.833 142.121 412.515 144.3C411.249 146.479 410.615 149.113 410.615 152.204V152.356C413.605 151.647 415.961 150.583 417.683 149.164C419.406 147.745 420.267 146.099 420.267 144.224C420.267 143.261 419.989 142.501 419.431 141.944C418.925 141.336 418.215 141.032 417.303 141.032ZM437.031 169.38C435.106 169.38 433.738 168.367 432.927 166.34C432.167 164.313 431.787 161.071 431.787 156.612C431.787 150.025 432.724 143.768 434.599 137.84C435.055 136.371 435.79 135.307 436.803 134.648C437.867 133.939 439.336 133.584 441.211 133.584C442.224 133.584 442.934 133.711 443.339 133.964C443.744 134.217 443.947 134.699 443.947 135.408C443.947 136.219 443.567 138.043 442.807 140.88C442.3 142.907 441.895 144.68 441.591 146.2C441.287 147.72 441.034 149.595 440.831 151.824C442.503 147.467 444.378 143.92 446.455 141.184C448.532 138.448 450.559 136.497 452.535 135.332C454.562 134.167 456.411 133.584 458.083 133.584C461.376 133.584 463.023 135.231 463.023 138.524C463.023 140.5 462.466 144.072 461.351 149.24C460.388 153.648 459.907 156.561 459.907 157.98C459.907 160.007 460.642 161.02 462.111 161.02C463.124 161.02 464.315 160.412 465.683 159.196C467.102 157.929 468.976 155.903 471.307 153.116C471.915 152.407 472.599 152.052 473.359 152.052C474.018 152.052 474.524 152.356 474.879 152.964C475.284 153.572 475.487 154.408 475.487 155.472C475.487 157.499 475.006 159.069 474.043 160.184C471.864 162.869 469.508 165.073 466.975 166.796C464.492 168.519 461.655 169.38 458.463 169.38C455.879 169.38 453.928 168.645 452.611 167.176C451.294 165.656 450.635 163.477 450.635 160.64C450.635 159.221 450.99 156.688 451.699 153.04C452.358 149.848 452.687 147.644 452.687 146.428C452.687 145.617 452.408 145.212 451.851 145.212C451.192 145.212 450.255 146.073 449.039 147.796C447.874 149.468 446.658 151.697 445.391 154.484C444.175 157.271 443.187 160.209 442.427 163.3C441.87 165.681 441.211 167.303 440.451 168.164C439.742 168.975 438.602 169.38 437.031 169.38ZM459.603 128.568C458.792 128.568 458.032 128.441 457.323 128.188C456.614 127.884 455.702 127.352 454.587 126.592L446.455 120.968L443.111 125.756C442.3 126.871 441.16 127.428 439.691 127.428C438.779 127.428 437.994 127.175 437.335 126.668C436.727 126.111 436.423 125.376 436.423 124.464C436.423 123.299 437.36 121.348 439.235 118.612C440.4 116.94 441.54 115.724 442.655 114.964C443.77 114.153 444.986 113.748 446.303 113.748C447.164 113.748 447.924 113.875 448.583 114.128C449.292 114.381 450.204 114.913 451.319 115.724L459.451 121.348L462.795 116.56C463.606 115.445 464.746 114.888 466.215 114.888C467.127 114.888 467.887 115.167 468.495 115.724C469.154 116.231 469.483 116.94 469.483 117.852C469.483 118.561 469.23 119.372 468.723 120.284C468.267 121.145 467.583 122.285 466.671 123.704C465.506 125.376 464.366 126.617 463.251 127.428C462.136 128.188 460.92 128.568 459.603 128.568ZM481.422 169.38C478.433 169.38 475.874 168.645 473.746 167.176C471.669 165.656 470.098 163.68 469.034 161.248C467.97 158.816 467.438 156.207 467.438 153.42C467.438 149.569 468.148 146.149 469.566 143.16C471.036 140.12 473.012 137.764 475.494 136.092C477.977 134.369 480.764 133.508 483.854 133.508C486.844 133.508 489.402 134.268 491.53 135.788C493.658 137.257 495.254 139.208 496.318 141.64C497.382 144.072 497.914 146.681 497.914 149.468C497.914 153.319 497.18 156.764 495.71 159.804C494.241 162.793 492.24 165.149 489.706 166.872C487.224 168.544 484.462 169.38 481.422 169.38ZM482.258 161.172C483.981 161.172 485.425 160.235 486.59 158.36C487.806 156.485 488.414 153.749 488.414 150.152C488.414 147.365 487.908 145.263 486.894 143.844C485.881 142.425 484.665 141.716 483.246 141.716C481.422 141.716 479.902 142.653 478.686 144.528C477.521 146.352 476.938 149.088 476.938 152.736C476.938 155.624 477.445 157.752 478.458 159.12C479.472 160.488 480.738 161.172 482.258 161.172Z" fill="white"/>
</g>
<defs>
<clipPath id="clip0_284_455">
<rect width="512" height="184" fill="white"/>
</clipPath>
</defs>
</svg>
